Coordinates
version=1
nRows=30
nColumns=38
inDegrees=no

Units are S.I. units (second, meters, Newtons, ...)
If the header above contains a line with 'inDegrees', this indicates whether rotational values are in degrees (yes) or radians (no).

endheader
time	pelvis_tilt	pelvis_list	pelvis_rotation	pelvis_tx	pelvis_ty	pelvis_tz	hip_flexion_r	hip_adduction_r	hip_rotation_r	knee_angle_r	ankle_angle_r	subtalar_angle_r	mtp_angle_r	hip_flexion_l	hip_adduction_l	hip_rotation_l	knee_angle_l	ankle_angle_l	subtalar_angle_l	mtp_angle_l	lumbar_extension	lumbar_bending	lumbar_rotation	arm_flex_r	arm_add_r	arm_rot_r	elbow_flex_r	pro_sup_r	wrist_flex_r	wrist_dev_r	arm_flex_l	arm_add_l	arm_rot_l	elbow_flex_l	pro_sup_l	wrist_flex_l	wrist_dev_l
100	3.03356	1.21284	-1.43901	0.54627	1.24177	1.10636	-0.265511	-0.0464332	0.0976582	0.905827	-0.633638	0	0	-0.309136	-0.068535	-0.336274	0.201556	-0.466082	0	0	-0.551625	-0.0323326	0.248925	0.0420667	-0.638138	0.0225644	1.82718	0.493825	0	0	0.197012	-0.025297	0.206533	1.59103	1.5708	0	0
100.01	3.03341	1.20303	-1.43623	0.544117	1.24463	1.10762	-0.261522	-0.0440226	0.0884422	0.922721	-0.600014	0	0	-0.335257	-0.061289	-0.308685	0.167378	-0.476419	0	0	-0.568463	-0.0244408	0.245432	0.0227056	-0.607335	-0.0233487	1.84421	0.504238	0	0	0.209809	-0.0507159	0.232997	1.59573	1.5708	0	0
100.02	3.02568	1.19987	-1.42697	0.541978	1.24795	1.10846	-0.252855	-0.0388606	0.0884968	0.932463	-0.574128	0	0	-0.344141	-0.0620552	-0.305763	0.161811	-0.476697	0	0	-0.572877	-0.0204653	0.243748	0.0244687	-0.609231	-0.0239864	1.84186	0.506536	0	0	0.211023	-0.0496928	0.235442	1.59482	1.5708	0	0
100.03	3.01758	1.19662	-1.41751	0.539885	1.25114	1.1093	-0.245149	-0.0335202	0.0876941	0.937291	-0.548845	0	0	-0.352827	-0.06311	-0.303255	0.156696	-0.476721	0	0	-0.577393	-0.0168043	0.242421	0.0265858	-0.611317	-0.0246264	1.8392	0.509001	0	0	0.21266	-0.0485552	0.238165	1.59397	1.5708	0	0
100.04	3.00955	1.19301	-1.40805	0.537771	1.25415	1.11014	-0.238624	-0.0283309	0.0851043	0.937508	-0.523509	0	0	-0.361338	-0.0644462	-0.301121	0.152433	-0.4765	0	0	-0.582486	-0.0132086	0.241119	0.0292914	-0.614097	-0.0249906	1.83655	0.511659	0	0	0.214805	-0.0471158	0.241004	1.59325	1.5708	0	0
100.05	3.00139	1.18954	-1.39854	0.535694	1.25703	1.11095	-0.2327	-0.0231924	0.0810829	0.93331	-0.497546	0	0	-0.36949	-0.0658664	-0.298961	0.148247	-0.476079	0	0	-0.587309	-0.0100032	0.239779	0.0327729	-0.617205	-0.0244944	1.8331	0.51447	0	0	0.217102	-0.0456073	0.243927	1.59259	1.5708	0	0
100.06	2.99207	1.18688	-1.38917	0.533971	1.26011	1.11167	-0.226591	-0.0178323	0.0763229	0.925047	-0.471826	0	0	-0.37729	-0.0676627	-0.298621	0.143742	-0.475363	0	0	-0.590332	-0.00766873	0.239215	0.0364655	-0.619917	-0.0223781	1.82834	0.517337	0	0	0.218509	-0.0447717	0.246612	1.5921	1.5708	0	0
100.07	2.98297	1.18367	-1.37932	0.532171	1.26307	1.11241	-0.222127	-0.0127871	0.068267	0.911102	-0.447923	0	0	-0.384819	-0.070047	-0.298695	0.140701	-0.474026	0	0	-0.593526	-0.00549726	0.23762	0.0415405	-0.623192	-0.0180641	1.8219	0.520216	0	0	0.220101	-0.0441241	0.249108	1.5915	1.5708	0	0
100.08	2.97453	1.18108	-1.36969	0.530293	1.26586	1.11304	-0.217392	-0.00828093	0.0586912	0.893552	-0.431897	0	0	-0.390391	-0.0725938	-0.300103	0.140184	-0.472461	0	0	-0.596049	-0.00383896	0.235775	0.0462326	-0.626246	-0.0139946	1.81522	0.522748	0	0	0.222214	-0.0434861	0.252045	1.59039	1.5708	0	0
100.09	2.9658	1.18041	-1.36139	0.528806	1.2688	1.11346	-0.210526	-0.00382958	0.0513184	0.874471	-0.422641	0	0	-0.394122	-0.0746965	-0.303895	0.139938	-0.471142	0	0	-0.596265	-0.00382086	0.236299	0.0480557	-0.62791	-0.0127374	1.80955	0.524973	0	0	0.224506	-0.0432137	0.256228	1.58874	1.5708	0	0
100.1	2.83451	1.35035	-1.23971	0.52946	1.28508	1.10628	-0.017513	-0.00543554	0.0628824	0.862264	-0.415052	0	0	-0.215663	-0.0614754	-0.2736	0.135954	-0.480523	0	0	-0.226424	0.148541	0.357421	-0.146909	-0.603621	-0.102645	1.72791	0.53878	0	0	0.470167	-0.188047	0.841141	1.1648	1.5708	0	0
100.11	2.86015	1.29546	-1.26637	0.526529	1.28387	1.10929	-0.0717571	0.00383814	0.0516122	0.827863	-0.406996	0	0	-0.278823	-0.0701171	-0.289234	0.131506	-0.475819	0	0	-0.377075	0.164613	0.517776	-0.377317	-0.581736	-0.413457	1.93694	0.545499	0	0	0.587563	-0.101958	0.95866	1.15779	1.5708	0	0
100.12	2.8521	1.29373	-1.25855	0.525385	1.28646	1.10969	-0.0695974	0.00760422	0.043489	0.796146	-0.400467	0	0	-0.284161	-0.0711766	-0.290106	0.128895	-0.475054	0	0	-0.381824	0.167891	0.518739	-0.377952	-0.583771	-0.41733	1.93955	0.547555	0	0	0.589192	-0.0999304	0.958645	1.15832	1.5708	0	0
100.13	2.84365	1.29315	-1.2509	0.524456	1.28911	1.10993	-0.0671504	0.0114545	0.0363371	0.76266	-0.394823	0	0	-0.288057	-0.0722244	-0.292292	0.127039	-0.474294	0	0	-0.384951	0.170485	0.519368	-0.377747	-0.585913	-0.419047	1.94133	0.5496	0	0	0.590099	-0.0989522	0.958057	1.15936	1.5708	0	0
100.14	2.93239	1.18418	-1.32888	0.523617	1.28309	1.11483	-0.188754	0.0148836	0.0109179	0.718858	-0.383043	0	0	-0.410246	-0.0787173	-0.304826	0.123907	-0.469497	0	0	-0.598281	0.026199	0.236726	0.058482	-0.640119	-0.0069599	1.81627	0.553532	0	0	0.21893	-0.0277007	0.242594	1.58	1.5708	0	0
100.15	2.92671	1.18346	-1.32361	0.522834	1.2857	1.11496	-0.189015	0.0183643	0.0027813	0.681983	-0.377567	0	0	-0.414289	-0.079975	-0.307648	0.122588	-0.467584	0	0	-0.599323	0.0290345	0.241007	0.0548474	-0.642363	-0.0120323	1.81823	0.55752	0	0	0.221	-0.0230969	0.243443	1.57596	1.5708	0	0
100.16	2.9219	1.18229	-1.31905	0.522096	1.28828	1.11507	-0.190891	0.0213933	-0.00609959	0.644216	-0.373217	0	0	-0.418301	-0.081425	-0.311801	0.122642	-0.46525	0	0	-0.600508	0.0314273	0.245057	0.051314	-0.644401	-0.0168422	1.82004	0.561566	0	0	0.223224	-0.0188581	0.244514	1.57208	1.5708	0	0
100.17	2.91834	1.18089	-1.31547	0.521415	1.29082	1.11513	-0.19421	0.0238699	-0.0156276	0.605951	-0.370395	0	0	-0.422076	-0.0828783	-0.316779	0.123936	-0.462634	0	0	-0.601615	0.0332171	0.24855	0.0483177	-0.646298	-0.02072	1.82144	0.565675	0	0	0.225622	-0.0152341	0.24563	1.5685	1.5708	0	0
100.18	2.91626	1.17941	-1.31318	0.520819	1.29332	1.11515	-0.198454	0.0257909	-0.0257568	0.568373	-0.369268	0	0	-0.425789	-0.084031	-0.321479	0.125751	-0.459806	0	0	-0.602315	0.0341877	0.251249	0.0463728	-0.647924	-0.0231345	1.82168	0.569906	0	0	0.227919	-0.0121933	0.246514	1.56508	1.5708	0	0
100.19	2.91556	1.17779	-1.31208	0.520292	1.29578	1.1151	-0.20357	0.0272697	-0.0365427	0.531589	-0.369866	0	0	-0.429447	-0.0850071	-0.326107	0.128305	-0.456674	0	0	-0.602535	0.0344294	0.252807	0.0460049	-0.649328	-0.0232618	1.82043	0.574757	0	0	0.229965	-0.0097925	0.246936	1.56175	1.5708	0	0
100.2	2.91634	1.17578	-1.31211	0.519805	1.29818	1.11503	-0.209962	0.0284608	-0.0477474	0.495622	-0.372666	0	0	-0.433209	-0.0858998	-0.330625	0.131838	-0.452941	0	0	-0.602238	0.0340425	0.252458	0.0485099	-0.650773	-0.0194613	1.81675	0.580154	0	0	0.231479	-0.00822501	0.246316	1.55865	1.5708	0	0
100.21	2.91875	1.17362	-1.31342	0.519365	1.30054	1.11491	-0.217073	0.0292066	-0.0594723	0.461501	-0.377812	0	0	-0.436878	-0.0865727	-0.33493	0.136025	-0.448893	0	0	-0.600691	0.0329475	0.249585	0.0548438	-0.651885	-0.0104408	1.80948	0.585483	0	0	0.232145	-0.00773103	0.244227	1.55564	1.5708	0	0
100.22	2.92232	1.17152	-1.3156	0.518993	1.30286	1.11473	-0.224614	0.029787	-0.0705702	0.429418	-0.386171	0	0	-0.440117	-0.08709	-0.339089	0.140947	-0.444681	0	0	-0.597242	0.0312518	0.243694	0.0659489	-0.651982	0.00462607	1.79773	0.590709	0	0	0.231547	-0.00844211	0.240142	1.55259	1.5708	0	0
100.23	2.92686	1.16958	-1.31864	0.518672	1.30516	1.11448	-0.232288	0.0300784	-0.0810327	0.400074	-0.39595	0	0	-0.443007	-0.0873279	-0.343035	0.146353	-0.440754	0	0	-0.5914	0.0288363	0.234932	0.0809756	-0.650221	0.0246109	1.78134	0.595935	0	0	0.229603	-0.0102238	0.234115	1.54908	1.5708	0	0
100.24	2.9328	1.16737	-1.32287	0.518369	1.30744	1.11422	-0.240856	0.0300079	-0.0908157	0.37275	-0.408741	0	0	-0.446219	-0.0871468	-0.346746	0.151835	-0.436859	0	0	-0.582716	0.0256666	0.222095	0.102928	-0.646939	0.0537508	1.75774	0.602552	0	0	0.225712	-0.0132746	0.225017	1.54491	1.5708	0	0
100.25	2.93973	1.16552	-1.328	0.518127	1.30971	1.11393	-0.24945	0.0296201	-0.0996392	0.347662	-0.429398	0	0	-0.449206	-0.0865699	-0.349915	0.157222	-0.432562	0	0	-0.569032	0.0212981	0.201914	0.137253	-0.640835	0.0995773	1.72163	0.612475	0	0	0.217633	-0.0184175	0.209675	1.54073	1.5708	0	0
100.26	2.94795	1.16481	-1.33426	0.517979	1.31207	1.11362	-0.256981	0.0284169	-0.107807	0.325325	-0.459816	0	0	-0.451185	-0.0853433	-0.351971	0.162244	-0.42867	0	0	-0.549276	0.0149626	0.175891	0.180602	-0.630291	0.158621	1.67288	0.624692	0	0	0.20605	-0.0254729	0.189869	1.53512	1.5708	0	0
100.27	2.9577	1.16886	-1.34102	0.518117	1.31483	1.11313	-0.259971	0.0260631	-0.115797	0.306627	-0.495984	0	0	-0.448136	-0.0831281	-0.350904	0.167214	-0.424806	0	0	-0.519798	0.00433696	0.145954	0.22599	-0.612308	0.224031	1.61167	0.639817	0	0	0.19177	-0.0349192	0.168613	1.5267	1.5708	0	0
100.28	2.96578	1.22358	-1.34223	0.520231	1.32164	1.11078	-0.212269	0.0163106	-0.123755	0.292303	-0.5264	0	0	-0.390679	-0.0730517	-0.327821	0.172736	-0.423096	0	0	-0.423235	-0.024293	0.11595	0.23808	-0.563187	0.267863	1.52223	0.657139	0	0	0.166243	-0.0546513	0.158032	1.49688	1.5708	0	0
100.29	2.98608	1.22497	-1.35789	0.520822	1.32405	1.11038	-0.218824	0.0118742	-0.130591	0.284143	-0.529207	0	0	-0.390925	-0.0691445	-0.323468	0.176593	-0.421593	0	0	-0.411253	-0.0392232	0.121856	0.225421	-0.556667	0.258024	1.50905	0.66182	0	0	0.177121	-0.0587406	0.173512	1.47999	1.5708	0	0
